Title                            : Fast Five
Year                             : 2011
Genre                            : Action | Crime | Drama
iMDB URL                         : http://www.imdb.com/title/tt1596343/

Complete name                    : Fast.Five.2011.BRRIP.720P.H264-ZEKTORM.mp4
Format                           : MPEG-4
Format profile                   : Base Media
Codec ID                         : isom
File size                        : 3.03 GiB
Duration                         : 2h 10mn
Overall bit rate                 : 3327 Kbps
Subtitles                        : English (Format: srt)

Video
ID                               : 1
Format                           : AVC
Format/Info                      : Advanced Video Codec
Format profile                   : High@L4.0
Format settings, CABAC           : Yes
Format settings, ReFrames        : 12 frames
Codec ID                         : avc1
Codec ID/Info                    : Advanced Video Coding
Duration                         : 2h 10mn
Bit rate mode                    : Variable
Bit rate                         : 2878 Kbps
Width                            : 1280 pixels
Height                           : 544 pixels
Display aspect ratio             : 2.35
Frame rate mode                  : Constant
Frame rate                       : 23.976 fps
Resolution                       : 24 bits
Colorimetry                      : 4:2:0
Scan type                        : Progressive
Bits/(Pixel*Frame)               : 0.172
Stream size                      : 2.62 GiB (86%)
Title                            : Video
Writing library                  : x264

Audio
ID                               : 2
Format                           : AAC
Format/Info                      : Advanced Audio Codec
Format version                   : Version 4
Format profile                   : LC
Format settings, SBR             : No
Codec ID                         : 40
Duration                         : 2h 10mn
Bit rate mode                    : Variable
Bit rate                         : 445 Kbps
Maximum bit rate                 : 565 Kbps
Channel(s)                       : 6 channels
Channel positions                : Front: L C R, Rear: L R, LFE
Sampling rate                    : 48.0 KHz
Resolution                       : 16 bits
Stream size                      : 415 MiB (13%)
Language                         : English


Screenshots:

[img]http://img153.imageshack.us/img153/9480/snapff1.png[/img]

[img]http://img21.imageshack.us/img21/4830/snapff2.png[/img]

[img]http://img17.imageshack.us/img17/3844/snapff3.png[/img]

[img]http://img231.imageshack.us/img231/6218/snapff4.png[/img]

[img]http://img13.imageshack.us/img13/1078/snapff5.png[/img]
